# xmcd
#
# Track frame offsets:
#	150
#	28091
#	51234
#	73670
#	93652
#	113782
#	142375
#	161295
#	185518
#	216034
#
# Disc length: 3200 seconds
#
# Revision: 1379102396
# Processed by: cddbd v1.5.2PL0 Copyright (c) Steve Scherf et al.
# Submitted via: EZCDAudioConverter 8.0.2.1
#
DISCID=950c7e0a
DTITLE=Mạnh Quỳnh, Hương Lan - Qua Lối Nhỏ
DYEAR=1998
DGENRE=
TTITLE0=Vọng gác đêm sương
TTITLE1=Gõ cửa
TTITLE2=Mai lỡ hai mình xa nhau
TTITLE3=Qua Lối Nhỏ
TTITLE4=Lá thư cuối cùng
TTITLE5=Ai khổ vì ai
TTITLE6=Ru em tròn giấc ngủ
TTITLE7=Em về kẻo mưa
TTITLE8=Ngõ hồn qua đêm
TTITLE9=Trách hờn
EXTD=
EXTT0=
EXTT1=
EXTT2=
EXTT3=
EXTT4=
EXTT5=
EXTT6=
EXTT7=
EXTT8=
EXTT9=
PLAYORDER=
